<svg version="1.1" xmlns="http://www.w3.org/2000/svg" xmlns:xlink="http://www.w3.org/1999/xlink" x="0px" y="0px" viewBox="0 0 56 48" enable-background="new 0 0 56 48" xml:space="preserve">
  <path d="M10.3,20.9c0.1,0,0.2,0,0.4-0.1l0.1,0c0.5-0.2,1-0.2,1.4-0.2c0.5,0.1,1.1-0.3,1.1-0.8c0.1-0.5-0.3-1.1-0.8-1.1 c-0.7-0.1-1.5,0-2.3,0.2L10,19c-0.5,0.2-0.8,0.8-0.6,1.3C9.6,20.7,9.9,20.9,10.3,20.9z M5.7,25c0.1,0.1,0.3,0.1,0.4,0.1 c0.4,0,0.7-0.2,0.9-0.6C7.2,24.1,7.6,23.6,8,23c0.4-0.4,0.3-1.1-0.1-1.4c-0.4-0.4-1.1-0.3-1.4,0.1c-0.5,0.7-1,1.3-1.2,1.9 C5,24.2,5.2,24.8,5.7,25z M14.5,25.3c0.1,0,0.2,0,0.3,0c0.4,0,0.8-0.3,1-0.7l0-0.1c0.1-0.5,0.2-0.9,0.2-1.4c0-0.3,0-0.6-0.1-0.9 c-0.1-0.5-0.6-0.9-1.2-0.8c-0.5,0.1-0.9,0.6-0.8,1.2c0,0.2,0,0.4,0,0.6c0,0.3,0,0.6-0.1,0.9C13.6,24.6,13.9,25.2,14.5,25.3z M40.8,13l3.2,1.1l-1.5,3.5c-0.2,0.5,0,1.1,0.5,1.3c0.1,0.1,0.3,0.1,0.4,0.1c0.4,0,0.7-0.2,0.9-0.6l1.6-3.7l2.9,1 c0.1,0,0.2,0.1,0.3,0.1c0.4,0,0.8-0.3,0.9-0.7c0.2-0.5-0.1-1.1-0.6-1.3l-2.7-0.9l1-2.3c0.2-0.5,0-1.1-0.5-1.3 c-0.5-0.2-1.1,0-1.3,0.5l-1.1,2.5l-3.4-1.1c-0.5-0.2-1.1,0.1-1.3,0.6C40,12.2,40.2,12.8,40.8,13z M24.8,27.1c-0.5,0.5-1,1-1.5,1.5 c-0.4,0.4-0.4,1,0,1.4c0.2,0.2,0.4,0.3,0.7,0.3c0.3,0,0.5-0.1,0.7-0.3c0.4-0.5,0.9-0.9,1.4-1.4c0.4-0.4,0.4-1,0.1-1.4 C25.9,26.8,25.3,26.7,24.8,27.1z M12.3,27.7c-0.3,0.8-0.5,1.4-0.7,2c-0.1,0.5,0.2,1.1,0.7,1.2c0.1,0,0.2,0,0.2,0 c0.5,0,0.9-0.3,1-0.8c0.1-0.5,0.3-1.1,0.6-1.8c0.2-0.5-0.1-1.1-0.6-1.3C13.1,26.9,12.5,27.2,12.3,27.7z M14.3,32.7 c-0.5-0.3-1.1-0.2-1.4,0.3c-0.3,0.5-0.2,1.1,0.3,1.4c0.7,0.4,1.5,0.7,2.4,0.7c0,0,0,0,0,0c0.5,0,1-0.4,1-1c0-0.6-0.4-1-1-1 C15.1,33,14.6,32.9,14.3,32.7z M31.4,25.7c-0.8-0.4-1.6-0.6-2.3-0.6c0,0,0,0,0,0c-0.5,0-1,0.4-1,1c0,0.6,0.4,1,1,1 c0.5,0,1,0.1,1.5,0.4c0.1,0.1,0.3,0.1,0.4,0.1c0.4,0,0.7-0.2,0.9-0.6C32.1,26.6,31.9,26,31.4,25.7z M48.8,21.7 c0.5-0.2,0.8-0.8,0.5-1.3c-0.3-0.7-0.6-1.3-0.9-1.9c-0.3-0.5-0.9-0.7-1.4-0.4c-0.5,0.3-0.7,0.9-0.4,1.4c0.3,0.5,0.6,1.1,0.8,1.7 c0.2,0.4,0.5,0.6,0.9,0.6C48.5,21.7,48.6,21.7,48.8,21.7z M49.4,23.6c-0.5,0.1-0.9,0.7-0.8,1.2c0.1,0.6,0.3,1.3,0.3,1.9 c0.1,0.5,0.5,0.9,1,0.9c0,0,0.1,0,0.1,0c0.5-0.1,0.9-0.6,0.9-1.1c-0.1-0.7-0.2-1.4-0.4-2.1C50.4,23.8,49.9,23.5,49.4,23.6z M50.1,29.5c-0.5-0.1-1.1,0.3-1.2,0.8c-0.1,0.6-0.3,1.2-0.5,1.6c-0.2,0.5,0,1.1,0.4,1.3c0.1,0.1,0.3,0.1,0.4,0.1 c0.4,0,0.7-0.2,0.9-0.6c0.3-0.6,0.5-1.4,0.7-2.2C51,30.1,50.6,29.6,50.1,29.5z M38,4h-2L20,0h-2L0,4v44l18-4h2l16,4h2l18-4V0L38,4 z M18,42h-0.2l-0.2,0L2,45.5V5.6L18,2V42z M36,29.2c-0.4-0.3-0.7-0.7-1.1-1c-0.4-0.4-1-0.3-1.4,0.1c-0.4,0.4-0.3,1,0.1,1.4 c0.5,0.4,0.9,0.8,1.5,1.3c0.2,0.2,0.4,0.2,0.6,0.2c0.1,0,0.2,0,0.3-0.1v14.7l-15.5-3.9L20.2,42H20v-8.1c0.3-0.2,0.7-0.3,0.9-0.5 c0.3-0.2,0.6-0.4,0.8-0.6c0.4-0.3,0.5-1,0.2-1.4c-0.3-0.4-1-0.5-1.4-0.2c-0.2,0.1-0.4,0.3-0.6,0.4V2.1l15.5,3.9L35.8,6H36V29.2z M54,42.4L38,46V33.4c0.1,0.1,0.1,0.2,0.2,0.2c0.6,0.5,1.2,0.8,1.8,1.1c0.1,0.1,0.3,0.1,0.5,0.1c0.4,0,0.7-0.2,0.9-0.5 c0.3-0.5,0.1-1.1-0.4-1.4c-0.5-0.3-1-0.6-1.6-1c-0.4-0.3-1-0.2-1.4,0.2V6h0.2l0.2,0L54,2.5V42.4z M46,33.8c-0.1,0-0.3,0.1-0.4,0.1 C45.3,34,44.9,34,44.6,34l-0.3,0c-0.5,0-1,0.4-1,1c0,0.6,0.4,1,1,1l0.3,0c0.5,0,0.9,0,1.4-0.1c0.2,0,0.4-0.1,0.6-0.1 c0.5-0.1,0.9-0.7,0.7-1.2C47.1,34.1,46.6,33.7,46,33.8z"/>
</svg>
