<svg version="1.1" xmlns="http://www.w3.org/2000/svg" xmlns:xlink="http://www.w3.org/1999/xlink" x="0px" y="0px" viewBox="0 0 56 52" enable-background="new 0 0 56 52" xml:space="preserve">
  <path d="M16,17c-2.2,0-4,1.8-4,4c0,2.2,1.8,4,4,4s4-1.8,4-4C20,18.8,18.2,17,16,17z M16,23c-1.1,0-2-0.9-2-2s0.9-2,2-2s2,0.9,2,2 S17.1,23,16,23z M28,17c-2.2,0-4,1.8-4,4c0,2.2,1.8,4,4,4s4-1.8,4-4C32,18.8,30.2,17,28,17z M28,23c-1.1,0-2-0.9-2-2s0.9-2,2-2 s2,0.9,2,2S29.1,23,28,23z M40,17c-2.2,0-4,1.8-4,4c0,2.2,1.8,4,4,4s4-1.8,4-4C44,18.8,42.2,17,40,17z M40,23c-1.1,0-2-0.9-2-2 s0.9-2,2-2s2,0.9,2,2S41.1,23,40,23z M44,0H12C5.4,0,0,5.4,0,12v18c0,6.6,5.4,12,12,12h2v10l14-10h16c6.6,0,12-5.4,12-12V12 C56,5.4,50.6,0,44,0z M54,30c0,5.5-4.5,10-10,10H27.3L16,48.1V40h-4C6.5,40,2,35.5,2,30V12C2,6.5,6.5,2,12,2h32 c5.5,0,10,4.5,10,10V30z"/>
</svg>
