<svg version="1.1" xmlns="http://www.w3.org/2000/svg" xmlns:xlink="http://www.w3.org/1999/xlink" x="0px" y="0px" viewBox="0 0 56 42" enable-background="new 0 0 56 42" xml:space="preserve">
  <path d="M28,14c-4.4,0-8,3.6-8,8c0,4.4,3.6,8,8,8s8-3.6,8-8C36,17.6,32.4,14,28,14z M28,28c-3.3,0-6-2.7-6-6c0-3.3,2.7-6,6-6 s6,2.7,6,6C34,25.3,31.3,28,28,28z M28,10c-6.6,0-12,5.4-12,12c0,6.6,5.4,12,12,12s12-5.4,12-12C40,15.4,34.6,10,28,10z M28,32 c-5.5,0-10-4.5-10-10c0-5.5,4.5-10,10-10s10,4.5,10,10C38,27.5,33.5,32,28,32z M44,11c-1.1,0-2,0.9-2,2s0.9,2,2,2s2-0.9,2-2 S45.1,11,44,11z M52,6h-8c-4,0-6-6-10-6s-6,0-6,0s-2,0-6,0s-6,6-10,6H4c-2.2,0-4,1.8-4,4v28c0,2.2,1.8,4,4,4h48c2.2,0,4-1.8,4-4 V10C56,7.8,54.2,6,52,6z M54,38c0,1.1-0.9,2-2,2H4c-1.1,0-2-0.9-2-2V10c0-1.1,0.9-2,2-2h7.5H12c5,0,7-6,10-6s6,0,6,0s3.1,0,6.2,0 c3.1,0,5.1,6,10.3,6H45h7c1.1,0,2,0.9,2,2V38z"/>
</svg>
