<svg xmlns="http://www.w3.org/2000/svg" width="512" height="512" viewBox="0 0 512 512"><path d="M238.795 207.704a145.52 145.52 0 0 0-5.32 3.23c14.53-46.545 55.848-80.213 104.424-80.213v-22c-72.786 0-132 62.356-132 139 0 2.11.052 4.205.14 6.29-33.377-35.866-42.044-88.736-17.658-130.974l-19.053-11c-36.394 63.033-12 145.493 54.377 183.815 1.703.984 3.42 1.92 5.146 2.825-48.095 11.55-98.83-7.348-123.414-49.927l-19.054 11c36.393 63.033 120.002 83.137 186.38 44.814 1.76-1.016 3.482-2.07 5.182-3.146-15.01 45.64-55.898 78.47-103.864 78.47v22c72.784 0 132-62.356 132-139 0-1.67-.04-3.33-.096-4.985 33.7 35.874 42.53 88.99 18.05 131.394l19.05 11c36.394-63.033 12-145.492-54.377-183.814a144.482 144.482 0 0 0-5.49-3.01c47.942-11.29 98.404 7.62 122.9 50.046l19.052-10.998c-36.393-63.033-120-83.136-186.377-44.814zM256 245.074c6.035 0 10.926 4.89 10.926 10.926s-4.892 10.927-10.926 10.927c-6.036 0-10.928-4.892-10.928-10.927s4.893-10.927 10.928-10.927z" fill="#d1d3d4"/></svg>