<svg xmlns="http://www.w3.org/2000/svg" width="512" height="512" viewBox="0 0 512 512"><path fill="#d1d3d4" d="M266.125 427.57l-20.043.028-1.7.175.973-1.34 10.023-17.4-15.033-8.644-10.005 17.385-.69 1.545-.7-1.552-10.044-17.345-15.01 8.678 9.97 17.207 1.073 1.505-1.878-.17-19.853.025.022 17.41 19.83-.027 1.9-.176-1.14 1.637-9.853 17.104L219 472.26l9.93-17.257.763-1.675.713 1.575 10.033 17.324 15.012-8.68-10.09-17.406-.956-1.305 1.522.173 20.22-.027z"/><path d="M146.198 273.782c-22.262-12.082-36.092-35.28-36.092-60.542 0-37.958 30.88-68.84 68.84-68.84 30.884 0 58.18 20.8 66.38 50.584L232 204.534s-18.91-5.672-48 14.466c-26 18-32.078 44.235-32.078 44.235l-5.724 10.547z" fill="#fff200"/><path d="M51.584 152.326l11.058-19.152L97.497 153.3a101.115 101.115 0 0 0-11.126 19.11l-34.786-20.084zM191 72h-23v40.774c3-.383 7.658-.577 11.238-.577 3.76 0 7.762.212 11.762.633V72zm-71.687 59.62a101.038 101.038 0 0 1 19.18-11.012l-20.202-34.99-19.15 11.057 20.173 34.944zM78.286 224c-.387-4-.583-7.198-.583-10.8 0-3.735.21-7.2.626-11.2H39v22h39.286zm180.99-127.326L240.12 85.616l-20.307 35.176a101.148 101.148 0 0 1 19.13 11.092l20.33-35.21zM62.64 293.31l34.65-20.007a101.187 101.187 0 0 1-11.063-19.148l-34.646 20.002 11.058 19.152zm89.28-30.075c-17.743-9.63-29.816-28.43-29.816-49.995 0-31.34 25.498-56.84 56.84-56.84 26.124 0 48.19 17.718 54.81 41.77l17.096-19.83c-12.98-26.637-40.336-45.035-71.906-45.035-44.077 0-79.936 35.86-79.936 79.936 0 25.284 11.8 47.865 30.18 62.523l22.732-12.528z" fill="#ffb200"/><path d="M166.7 364c-27 0-48.968-22.23-48.968-49.56 0-23.383 16.143-43.03 37.762-48.163 5.176-34.57 35.054-61.167 71.023-61.167 3.874 0 7.71.305 11.484.91 12.397-35.86 46.498-60.772 85.348-60.772 49.792 0 90.3 40.508 90.3 90.3a90.85 90.85 0 0 1-.493 9.464c24.222 8.037 41.776 31.425 41.776 58.005 0 33.625-27.09 60.98-60.39 60.98H166.7z" fill="#808285"/><path d="M323.348 157.25c43.244 0 78.3 35.055 78.3 78.3 0 6.454-.785 12.723-2.257 18.725 24.447 2.433 43.54 23.652 43.54 48.743 0 26.726-21.664 48.98-48.39 48.98H166.7c-20.418 0-36.968-17.138-36.968-37.558 0-20.416 16.55-37.47 36.968-37.47 0-33.035 26.78-59.86 59.816-59.86 7.01 0 13.732 1.193 19.984 3.41 7.018-36.04 38.754-63.27 76.848-63.27m0-23.097c-40.56 0-76.51 24.173-92.547 59.925a83.664 83.664 0 0 0-4.283-.11c-39.058 0-71.894 27.146-80.633 63.56-22.892 8.543-39.25 30.88-39.25 56.865C106.635 347.74 133.58 375 166.7 375h227.84c39.418 0 71.487-32.385 71.487-72.03 0-17.82-6.58-35.014-18.53-48.293-6.482-7.204-14.232-12.97-22.774-16.986.015-.702.02-1.42.02-2.124 0-55.91-45.485-101.413-101.395-101.413z" fill="#333"/><path fill="#ffb200" d="M338.5 352l24.5-49h-24l-36 72h23.5L302 424h24l-24 48h24l36-72h-24l24-48z"/></svg>