<svg xmlns="http://www.w3.org/2000/svg" width="512" height="512" viewBox="0 0 512 512"><path d="M255.725 324.88c-37.958 0-68.84-30.88-68.84-68.84s30.88-68.838 68.84-68.838c5.096 0 10.23.58 15.264 1.725l20.763 4.72-14.792 15.318c-12.3 12.736-19.074 29.456-19.074 47.077 0 17.622 6.774 34.34 19.075 47.078l14.795 15.318-20.767 4.72a69 69 0 0 1-15.263 1.723z" fill="#FFF"/><path d="M269.517 256.04c0-26.63 15.35-49.73 37.66-60.956a79.915 79.915 0 0 0-16.452-10.783 79.333 79.333 0 0 0-35-8.098c-44.024 0-79.84 35.816-79.84 79.84s35.816 79.84 79.84 79.84c12.55 0 24.425-2.92 35-8.1a79.922 79.922 0 0 0 16.453-10.784c-22.31-11.226-37.66-34.326-37.66-60.957zm-1.19 55.415a56.794 56.794 0 0 1-12.603 1.426c-31.342 0-56.84-25.497-56.84-56.84 0-31.34 25.498-56.838 56.84-56.838 4.332 0 8.547.503 12.604 1.426-13.88 14.37-22.443 33.905-22.443 55.414 0 21.508 8.564 41.042 22.443 55.413z" fill="#0073db"/></svg>