<svg xmlns="http://www.w3.org/2000/svg" width="512" height="512" viewBox="0 0 512 512"><path d="M256 442.84c-36.855 0-66.84-29.984-66.84-66.84 0-20.02 9.067-38.986 24.477-51.648V114c0-23.512 19.127-42.64 42.64-42.64 23.51 0 42.64 19.128 42.64 42.64v210.814c15.07 12.658 23.924 31.425 23.924 51.186 0 36.855-29.985 66.84-66.84 66.84z" fill="#FFF"/><path d="M312.916 319.975V114c0-31.23-25.408-56.64-56.64-56.64-31.23 0-56.64 25.41-56.64 56.64v205.406c-14.55 14.478-23.572 34.495-23.572 56.594 0 44.077 35.86 79.937 79.936 79.937s79.936-35.86 79.936-79.937c0-21.814-8.8-41.596-23.02-56.025zm-89.28 9.36V114c0-17.998 14.642-32.64 32.64-32.64s32.64 14.642 32.64 32.64V329.708C303.38 340.02 312.842 356.92 312.842 376c0 31.342-25.497 56.84-56.84 56.84s-56.84-25.498-56.84-56.84c0-19.164 9.544-36.13 24.116-46.432l.36-.234z" fill="#d1d3d4"/><path d="M272.275 339.338V110h-32v229.338c-14.125 6.173-24 20.26-24 36.662 0 22.092 17.908 40 40 40s40-17.908 40-40c0-16.4-9.875-30.49-24-36.662z" fill="#F30"/><path fill="#d1d3d4" d="M336 304h32v16h-32zM335.043 256h32.913v16h-32.913zM336 208h32v16h-32zM336 160h32v16h-32zM336 112h64v16h-64z"/></svg>