<svg xmlns="http://www.w3.org/2000/svg" width="512" height="512" viewBox="0 0 512 512"><path d="M255.725 324.88c-37.958 0-68.84-30.88-68.84-68.84s30.88-68.838 68.84-68.838c37.958 0 68.84 30.88 68.84 68.84s-30.882 68.84-68.84 68.84z" fill="#fff200"/><path d="M128.363 195.126l11.058-19.152 34.856 20.125a101.115 101.115 0 0 0-11.126 19.11l-34.787-20.084zM267 115h-22v40.574c3-.383 7.158-.577 10.74-.577 3.758 0 8.26.212 11.26.633V115zm-70.907 59.42a100.985 100.985 0 0 1 19.18-11.012l-20.202-34.99-19.15 11.058 20.173 34.943zm187.517 20.706l-11.058-19.152-35.222 20.336a100.986 100.986 0 0 1 11.076 19.142l35.204-20.326zM155.064 267c-.387-4-.583-7.198-.583-10.8 0-3.736.21-7.2.627-11.2H115v22h40.064zm180.99-127.525l-19.152-11.058-20.307 35.176a101.11 101.11 0 0 1 19.13 11.092l20.33-35.21zM316.9 383.665l19.153-11.06-20.17-34.93a101.217 101.217 0 0 1-19.108 11.13l20.125 34.86zm-177.48-47.557l34.65-20.005a101.187 101.187 0 0 1-11.062-19.148l-34.646 20 11.06 19.153zM397 267v-22h-40.66c.416 4 .627 7.464.627 11.2 0 3.602-.196 6.8-.583 10.8H397zm-24.448 69.108l11.058-19.152-35.062-20.243a101.007 101.007 0 0 1-11.016 19.177l35.02 20.218zm-177.48 47.557l20.02-34.674a101.186 101.186 0 0 1-19.16-11.045l-20.012 34.66 19.152 11.06zM267 397v-40.15c-3 .42-7.504.633-11.26.633-3.582 0-7.74-.193-10.74-.577V397h22zm68.66-140.96c0-44.076-35.86-79.935-79.936-79.935-44.077 0-79.937 35.86-79.937 79.936 0 44.078 35.86 79.938 79.937 79.938s79.936-35.86 79.936-79.937zm-23.097 0c0 31.343-25.498 56.84-56.84 56.84-31.34 0-56.84-25.497-56.84-56.84 0-31.34 25.5-56.838 56.84-56.838 31.342 0 56.84 25.498 56.84 56.84z" fill="#ffb200"/></svg>