<svg xmlns="http://www.w3.org/2000/svg" width="512" height="512" viewBox="0 0 512 512"><path d="M136.7 375h121.452v-23H136.7c-20.418 0-36.968-17.14-36.968-37.56 0-20.415 16.55-37.47 36.968-37.47 0-33.034 26.78-59.86 59.816-59.86 7.01 0 13.732 1.194 19.984 3.41 7.017-36.042 38.753-63.27 76.847-63.27 43.244 0 78.3 35.055 78.3 78.3 0 6.454-.785 12.724-2.257 18.726 24.446 2.433 43.54 23.652 43.54 48.743 0 26.725-21.665 48.98-48.39 48.98h-38.693v23h38.692c39.417 0 71.486-32.385 71.486-72.03 0-17.82-6.58-35.014-18.53-48.293-6.482-7.204-14.232-12.97-22.774-16.986.015-.702.02-1.42.02-2.123 0-55.91-45.485-101.414-101.395-101.414-40.56 0-76.51 24.173-92.547 59.925a83.664 83.664 0 0 0-4.284-.11c-39.058 0-71.894 27.146-80.633 63.56-22.892 8.543-39.25 30.88-39.25 56.865C76.636 347.74 103.58 375 136.7 375z" fill="#d1d3d4"/><path d="M280.113 375v-23h23.13v23h-23.13zm0-46.662v-19.672c0-15.582 6.455-30.482 19.188-44.285 2.62-2.912 5.33-5.62 8.063-8.055a53.85 53.85 0 0 0 6.003-6.268c1.524-1.88 2.805-4.14 3.805-6.715.94-2.424 1.417-5.573 1.417-9.36 0-3.898-.64-7.47-1.9-10.62-1.22-3.054-2.96-5.7-5.17-7.863-2.237-2.186-4.98-3.926-8.148-5.174-3.233-1.27-6.855-1.915-10.765-1.915-8.47 0-15.22 2.668-20.066 7.926-5.105 5.536-7.928 14.075-8.393 25.38l-.312 7.636h-22.958l.148-8.11c.15-8.274 1.496-15.875 3.997-22.59 2.55-6.86 6.113-12.77 10.59-17.57 4.54-4.87 10.085-8.672 16.482-11.297 6.294-2.58 13.265-3.89 20.718-3.89 7.046 0 13.637 1.24 19.588 3.684 5.958 2.448 11.194 5.904 15.564 10.27 4.397 4.4 7.836 9.713 10.222 15.79 2.344 5.992 3.532 12.51 3.532 19.37 0 5.97-.814 11.27-2.42 15.75-1.543 4.296-3.498 8.148-5.81 11.447a50.586 50.586 0 0 1-7.817 8.796 154.11 154.11 0 0 0-6.652 6.26c-5.488 5.49-9.56 11.028-12.1 16.463-2.437 5.21-3.673 10.996-3.673 17.2v17.41h-23.132z" fill="#333"/></svg>