<svg xmlns="http://www.w3.org/2000/svg" width="512" height="512" viewBox="0 0 512 512"><path d="M255.725 324.88c-37.958 0-68.84-30.88-68.84-68.84s30.88-68.838 68.84-68.838c37.958 0 68.84 30.88 68.84 68.84s-30.882 68.84-68.84 68.84z" fill="#fff200"/><path d="M335.66 256.04c0-44.076-35.86-79.935-79.936-79.935-44.077 0-79.937 35.86-79.937 79.936 0 44.078 35.86 79.938 79.937 79.938s79.936-35.86 79.936-79.937zm-23.097 0c0 31.343-25.498 56.84-56.84 56.84-31.34 0-56.84-25.497-56.84-56.84 0-31.34 25.5-56.838 56.84-56.838 31.342 0 56.84 25.498 56.84 56.84z" fill="#ffb200"/></svg>