<svg xmlns="http://www.w3.org/2000/svg" width="512" height="512" viewBox="0 0 512 512"><path d="M136.7 300c-27 0-48.968-22.23-48.968-49.56 0-23.383 16.143-43.03 37.762-48.163 5.176-34.57 35.054-61.167 71.023-61.167 3.874 0 7.71.305 11.484.91 12.397-35.86 46.5-60.772 85.348-60.772 49.792 0 90.3 40.508 90.3 90.3a90.85 90.85 0 0 1-.493 9.464c24.222 8.037 41.776 31.425 41.776 58.005 0 33.625-27.09 60.98-60.39 60.98H136.7z" fill="#e6e7e8"/><path d="M293.348 93.25c43.244 0 78.3 35.055 78.3 78.3 0 6.454-.785 12.724-2.257 18.726 24.447 2.433 43.54 23.652 43.54 48.743 0 26.725-21.664 48.98-48.39 48.98H136.7c-20.418 0-36.968-17.14-36.968-37.56 0-20.415 16.55-37.47 36.968-37.47 0-33.034 26.78-59.86 59.816-59.86 7.01 0 13.732 1.194 19.984 3.41 7.018-36.04 38.754-63.27 76.848-63.27m0-23.097c-40.56 0-76.51 24.173-92.547 59.925a83.664 83.664 0 0 0-4.283-.11c-39.058 0-71.894 27.146-80.633 63.56-22.892 8.543-39.25 30.88-39.25 56.865C76.635 283.74 103.58 311 136.7 311h227.84c39.418 0 71.487-32.385 71.487-72.03 0-17.82-6.58-35.014-18.53-48.293-6.482-7.204-14.232-12.97-22.774-16.986.015-.702.02-1.42.02-2.123 0-55.91-45.485-101.414-101.395-101.414z" fill="#939598"/><path fill="#808285" d="M95.547 452l139.58-186.998h41.744L416.46 452z"/><path d="M440.392 464H71.615L229.11 253.002h53.78L440.39 464zM115.49 442h281.027l-124.66-166.998h-31.715L115.49 442z" fill="#333"/></svg>