<svg xmlns="http://www.w3.org/2000/svg" width="512" height="512" viewBox="0 0 512 512"><path d="M136.7 364c-27 0-48.968-22.23-48.968-49.56 0-23.383 16.143-43.03 37.762-48.163 5.176-34.57 35.054-61.167 71.023-61.167 3.874 0 7.71.305 11.484.91 12.397-35.86 46.5-60.772 85.348-60.772 49.792 0 90.3 40.508 90.3 90.3a90.85 90.85 0 0 1-.493 9.464c24.222 8.037 41.776 31.425 41.776 58.005 0 33.625-27.09 60.98-60.39 60.98H136.7z" fill="#bcb291"/><path d="M293.348 157.25c43.244 0 78.3 35.055 78.3 78.3 0 6.454-.785 12.724-2.257 18.726 24.447 2.433 43.54 23.652 43.54 48.743 0 26.725-21.664 48.98-48.39 48.98H136.7c-20.418 0-36.968-17.14-36.968-37.56 0-20.415 16.55-37.47 36.968-37.47 0-33.034 26.78-59.86 59.816-59.86 7.01 0 13.732 1.194 19.984 3.41 7.018-36.04 38.754-63.27 76.848-63.27m0-23.097c-40.56 0-76.51 24.173-92.547 59.925a83.664 83.664 0 0 0-4.283-.11c-39.058 0-71.894 27.146-80.633 63.56-22.892 8.543-39.25 30.88-39.25 56.865C76.635 347.74 103.58 375 136.7 375h227.84c39.418 0 71.487-32.385 71.487-72.03 0-17.82-6.58-35.014-18.53-48.293-6.482-7.204-14.232-12.97-22.774-16.986.015-.702.02-1.42.02-2.123 0-55.91-45.485-101.414-101.395-101.414z" fill="#dbd1af"/><path fill="#efe7cb" d="M304 411h108v18H304zM304 445h88v18h-88z"/><circle cx="99" cy="420" r="9" fill="#efe7cb"/><circle cx="120" cy="406" r="5" fill="#efe7cb"/><circle cx="167" cy="420" r="12.5" fill="#efe7cb"/><circle cx="138.5" cy="452.5" r="7.5" fill="#efe7cb"/><circle cx="181.5" cy="455.5" r="10.5" fill="#efe7cb"/><circle cx="202.5" cy="430.5" r="10.5" fill="#efe7cb"/><circle cx="234" cy="460.5" r="5" fill="#efe7cb"/><circle cx="129.25" cy="434.25" r="9.25" fill="#efe7cb"/><circle cx="175.5" cy="324.5" r="4.5" fill="#efe7cb"/><circle cx="199.97" cy="300.97" r="11.228" fill="#efe7cb"/><circle cx="245.5" cy="326.5" r="6.5" fill="#efe7cb"/><circle cx="287.5" cy="288.5" r="11.5" fill="#efe7cb"/><circle cx="357.75" cy="318.75" r="5.75" fill="#efe7cb"/><circle cx="327.25" cy="329.25" r="4.75" fill="#efe7cb"/><circle cx="376.5" cy="292.5" r="4.5" fill="#efe7cb"/><circle cx="174.25" cy="255.25" r="7.25" fill="#efe7cb"/><circle cx="138.5" cy="312.5" r="7.5" fill="#efe7cb"/><circle cx="85.135" cy="376.5" r="8.5" fill="#efe7cb"/><circle cx="62" cy="405" r="4" fill="#efe7cb"/><circle cx="75.568" cy="443.817" r="9.568" fill="#efe7cb"/><circle cx="209.5" cy="336" r="7" fill="#efe7cb"/><circle cx="281.75" cy="325.75" r="5.75" fill="#efe7cb"/><circle cx="204.97" cy="400" r="5" fill="#efe7cb"/><circle cx="252" cy="429" r="14.5" fill="#efe7cb"/></svg>