<svg xmlns="http://www.w3.org/2000/svg" width="512" height="512" viewBox="0 0 512 512"><path d="M136.7 300c-27 0-48.968-22.23-48.968-49.56 0-23.383 16.143-43.03 37.762-48.163 5.176-34.57 35.054-61.167 71.023-61.167 3.874 0 7.71.305 11.484.91 12.397-35.86 46.498-60.772 85.348-60.772 49.792 0 90.3 40.508 90.3 90.3a90.85 90.85 0 0 1-.493 9.464c24.222 8.037 41.776 31.425 41.776 58.005 0 33.625-27.09 60.98-60.39 60.98H136.7z" fill="#e6e7e8"/><path d="M417.496 190.677c-6.48-7.204-14.23-12.97-22.773-16.986.015-.702.02-1.42.02-2.123 0-55.91-45.485-101.414-101.395-101.414-40.56 0-76.51 24.173-92.547 59.925a83.664 83.664 0 0 0-4.283-.11c-39.058 0-71.894 27.146-80.633 63.56-22.892 8.543-39.25 30.88-39.25 56.865C76.635 283.74 103.58 311 136.7 311H237v-23H136.7c-20.418 0-36.968-17.14-36.968-37.56 0-20.415 16.55-37.47 36.968-37.47 0-33.034 26.78-59.86 59.816-59.86 7.01 0 13.732 1.194 19.984 3.41 7.017-36.042 38.753-63.27 76.847-63.27 43.244 0 78.3 35.055 78.3 78.3 0 6.454-.785 12.724-2.257 18.726 24.446 2.433 43.54 23.652 43.54 48.743 0 26.725-21.665 48.98-48.39 48.98H308v23h56.54c39.418 0 71.487-32.385 71.487-72.03 0-17.82-6.58-35.014-18.53-48.293z" fill="#939598"/><path d="M268.51 418c2.415-23.27-.61-61.613-10.867-82.71-6.347-13.058-13.55-25.055-19.904-35.64-9.04-15.056-16.844-28.052-20.962-41.11-6.7-21.25-8.383-41.08-5.003-58.943l1.54-8.14H316.72l-5.78 13.85a115.574 115.574 0 0 0-5.11 15.19c-5.582 21.35-6.104 46.196-1.596 75.963 4.038 26.664 2.325 51.31-5.393 77.562-2.737 9.314-15.25 35.727-19.84 46.312L268.51 418z" fill="#808285"/><path d="M301.71 201.457a124.895 124.895 0 0 0-5.556 16.51c-5.934 22.69-6.525 48.854-1.81 79.99 3.812 25.17 2.192 48.443-5.1 73.244-2.863 9.743-6.47 19.192-10.47 28.42 2.316-22.312.1-43.527-12.14-68.703-6.54-13.457-13.866-25.657-20.33-36.422-8.708-14.505-16.23-27.03-19.99-38.963-6.216-19.712-7.79-37.833-4.715-54.075h80.11m37.208-22h-133.83c-9.392 24.227-9.318 52.363.244 82.69 7.748 24.57 26.722 47.95 41.517 78.39 18.476 38.006 9.675 64.405-1.155 113.208l-2.82 12.7h27.837l2.863-5.85c22.967-46.943 53.223-95.27 42.52-165.933-11.655-76.958 15.642-99.647 21.382-112.185l1.44-3.02z" fill="#333"/></svg>