<svg xmlns="http://www.w3.org/2000/svg" width="512" height="512" viewBox="0 0 512 512"><path d="M138.725 282.88c-37.958 0-68.84-30.88-68.84-68.84 0-37.957 30.88-68.838 68.84-68.838 5.096 0 10.23.58 15.264 1.725l20.763 4.72-14.792 15.318c-12.3 12.736-19.074 29.456-19.074 47.077s6.774 34.34 19.075 47.078l14.795 15.318-20.767 4.72a69 69 0 0 1-15.263 1.723z" fill="#FFF"/><path d="M152.517 214.04c0-26.63 15.35-49.73 37.66-60.956a79.915 79.915 0 0 0-16.452-10.783 79.333 79.333 0 0 0-35-8.098c-44.024 0-79.84 35.816-79.84 79.84s35.816 79.84 79.84 79.84c12.55 0 24.425-2.92 35-8.1a79.922 79.922 0 0 0 16.453-10.784c-22.31-11.226-37.66-34.326-37.66-60.957zm-1.19 55.415a56.794 56.794 0 0 1-12.603 1.426c-31.342 0-56.84-25.497-56.84-56.84 0-31.34 25.498-56.838 56.84-56.838 4.332 0 8.547.503 12.604 1.426-13.88 14.37-22.443 33.905-22.443 55.414 0 21.508 8.564 41.042 22.443 55.413z" fill="#0073db"/><path d="M166.7 364c-27 0-48.968-22.23-48.968-49.56 0-23.383 16.143-43.03 37.762-48.163 5.176-34.57 35.054-61.167 71.023-61.167 3.874 0 7.71.305 11.484.91 12.397-35.86 46.498-60.772 85.348-60.772 49.792 0 90.3 40.508 90.3 90.3 0 3.164-.164 6.324-.493 9.465 24.222 8.037 41.776 31.425 41.776 58.005 0 33.625-27.09 60.98-60.39 60.98H166.7z" fill="#e6e7e8"/><path d="M323.348 157.25c43.244 0 78.3 35.055 78.3 78.3 0 6.454-.785 12.724-2.257 18.726 24.447 2.433 43.54 23.652 43.54 48.743 0 26.725-21.664 48.98-48.39 48.98H166.7c-20.418 0-36.968-17.14-36.968-37.56 0-20.415 16.55-37.47 36.968-37.47 0-33.034 26.78-59.86 59.816-59.86 7.01 0 13.732 1.194 19.984 3.41 7.018-36.04 38.754-63.27 76.848-63.27m0-23.097c-40.56 0-76.51 24.173-92.547 59.925a83.664 83.664 0 0 0-4.283-.11c-39.058 0-71.894 27.146-80.633 63.56-22.892 8.543-39.25 30.88-39.25 56.865C106.635 347.74 133.58 375 166.7 375h227.84c39.418 0 71.487-32.385 71.487-72.03 0-17.82-6.58-35.014-18.53-48.293-6.482-7.204-14.232-12.97-22.774-16.986.015-.702.02-1.42.02-2.123 0-55.91-45.485-101.414-101.395-101.414z" fill="#939598"/></svg>